<svg width="96" height="96" viewBox="0 0 96 96" fill="none" xmlns="http://www.w3.org/2000/svg">
  <defs>
    <linearGradient id="gateonLogoGradient" x1="16" y1="12" x2="80" y2="84" gradientUnits="userSpaceOnUse">
      <stop offset="0" stop-color="#8A6BFF" />
      <stop offset="1" stop-color="#2F7DFF" />
    </linearGradient>
  </defs>
  <rect x="8" y="8" width="80" height="80" rx="24" fill="url(#gateonLogoGradient)" />
  <path d="M58.5 27H42C34.8203 27 29 32.8203 29 40V56C29 63.1797 34.8203 69 42 69H58.5C59.8807 69 61 67.8807 61 66.5C61 65.1193 59.8807 64 58.5 64H42C37.5817 64 34 60.4183 34 56V40C34 35.5817 37.5817 32 42 32H58.5C59.8807 32 61 30.8807 61 29.5C61 28.1193 59.8807 27 58.5 27Z" fill="white" />
  <path d="M53 47H64.5C65.8807 47 67 48.1193 67 49.5C67 50.8807 65.8807 52 64.5 52H53C51.6193 52 50.5 50.8807 50.5 49.5C50.5 48.1193 51.6193 47 53 47Z" fill="white" />
</svg>